<svg xmlns="http://www.w3.org/2000/svg" viewBox="0 0 1200 480" role="img" aria-labelledby="t d">
  <title id="t">Supervision NOC 24/7 - services manages</title>
  <desc id="d">Une ingenieure africaine a peau noire supervise l'infrastructure depuis un centre d'operations avec un mur d'ecrans.</desc>
  <defs>
    <linearGradient id="bg" x1="0" y1="0" x2="0" y2="1">
      <stop offset="0" stop-color="#0d1630"/>
      <stop offset="1" stop-color="#070c1a"/>
    </linearGradient>
    <radialGradient id="glow" cx="0.5" cy="0.25" r="0.6">
      <stop offset="0" stop-color="#1e8c3a" stop-opacity="0.22"/>
      <stop offset="1" stop-color="#1e8c3a" stop-opacity="0"/>
    </radialGradient>
  </defs>
  <rect width="1200" height="480" fill="url(#bg)"/>
  <rect width="1200" height="480" fill="url(#glow)"/>

  <!-- mur d'ecrans de supervision -->
  <g>
    <rect x="140" y="50" width="280" height="150" rx="8" fill="#0a1128" stroke="#2a3550" stroke-width="4"/>
    <rect x="156" y="66" width="90" height="8" rx="4" fill="#2ecc71"/>
    <polyline points="160,170 200,140 240,152 280,110 320,124 360,92 400,104" fill="none" stroke="#2ecc71" stroke-width="3.5" stroke-linecap="round" stroke-linejoin="round"/>
    <g stroke="#16223f" stroke-width="2">
      <line x1="156" y1="100" x2="404" y2="100"/>
      <line x1="156" y1="130" x2="404" y2="130"/>
      <line x1="156" y1="160" x2="404" y2="160"/>
    </g>
    <circle cx="360" cy="92" r="4" fill="#2ecc71"/>

    <rect x="440" y="50" width="280" height="150" rx="8" fill="#0a1128" stroke="#2a3550" stroke-width="4"/>
    <rect x="456" y="66" width="90" height="8" rx="4" fill="#3498db"/>
    <circle cx="530" cy="140" r="34" fill="none" stroke="#16223f" stroke-width="10"/>
    <path d="M530 106 a34 34 0 0 1 30 50" fill="none" stroke="#2ecc71" stroke-width="10" stroke-linecap="round"/>
    <circle cx="640" cy="140" r="34" fill="none" stroke="#16223f" stroke-width="10"/>
    <path d="M640 106 a34 34 0 1 1 -24 58" fill="none" stroke="#3498db" stroke-width="10" stroke-linecap="round"/>

    <rect x="740" y="50" width="280" height="150" rx="8" fill="#0a1128" stroke="#2a3550" stroke-width="4"/>
    <rect x="756" y="66" width="90" height="8" rx="4" fill="#f39c12"/>
    <g>
      <circle cx="766" cy="100" r="5" fill="#2ecc71"/>
      <rect x="780" y="95" width="220" height="9" rx="4.5" fill="#16223f"/>
      <rect x="780" y="95" width="160" height="9" rx="4.5" fill="#2ecc71" opacity="0.7"/>
      <circle cx="766" cy="126" r="5" fill="#2ecc71"/>
      <rect x="780" y="121" width="220" height="9" rx="4.5" fill="#16223f"/>
      <rect x="780" y="121" width="190" height="9" rx="4.5" fill="#2ecc71" opacity="0.7"/>
      <circle cx="766" cy="152" r="5" fill="#f39c12"/>
      <rect x="780" y="147" width="220" height="9" rx="4.5" fill="#16223f"/>
      <rect x="780" y="147" width="90" height="9" rx="4.5" fill="#f39c12" opacity="0.8"/>
      <circle cx="766" cy="178" r="5" fill="#2ecc71"/>
      <rect x="780" y="173" width="220" height="9" rx="4.5" fill="#16223f"/>
      <rect x="780" y="173" width="130" height="9" rx="4.5" fill="#3498db" opacity="0.8"/>
    </g>

    <rect x="240" y="216" width="240" height="120" rx="8" fill="#0a1128" stroke="#2a3550" stroke-width="4"/>
    <g fill="#16223f">
      <rect x="256" y="290" width="24" height="30" rx="2"/>
      <rect x="290" y="272" width="24" height="48" rx="2"/>
      <rect x="324" y="282" width="24" height="38" rx="2"/>
      <rect x="358" y="256" width="24" height="64" rx="2"/>
      <rect x="392" y="268" width="24" height="52" rx="2"/>
      <rect x="426" y="246" width="24" height="74" rx="2"/>
    </g>
    <g fill="#2ecc71">
      <rect x="358" y="256" width="24" height="10" rx="2"/>
      <rect x="426" y="246" width="24" height="10" rx="2"/>
    </g>

    <rect x="680" y="216" width="240" height="120" rx="8" fill="#0a1128" stroke="#2a3550" stroke-width="4"/>
    <circle cx="800" cy="276" r="36" fill="none" stroke="#16223f" stroke-width="12"/>
    <path d="M800 240 a36 36 0 1 1 -33 20" fill="none" stroke="#2ecc71" stroke-width="12" stroke-linecap="round"/>
    <text x="800" y="284" font-family="monospace" font-size="20" font-weight="bold" fill="#e8edf5" text-anchor="middle">99%</text>
  </g>

  <!-- badge 24/7 -->
  <g transform="translate(1090,90)">
    <circle r="40" fill="rgba(46,204,113,0.12)" stroke="#2ecc71" stroke-width="3"/>
    <text y="8" font-family="monospace" font-size="22" font-weight="bold" fill="#2ecc71" text-anchor="middle">24/7</text>
  </g>

  <!-- sol -->
  <rect x="0" y="408" width="1200" height="72" fill="#0a1128"/>
  <rect x="0" y="408" width="1200" height="3" fill="#1e8c3a" opacity="0.5"/>

  <!-- bureau de l'operatrice -->
  <rect x="420" y="356" width="360" height="14" rx="6" fill="#2a3550"/>
  <rect x="450" y="370" width="12" height="38" fill="#1a2440"/>
  <rect x="738" y="370" width="12" height="38" fill="#1a2440"/>
  <rect x="460" y="300" width="100" height="56" rx="5" fill="#0a1128" stroke="#2a3550" stroke-width="3"/>
  <rect x="502" y="356" width="16" height="0" fill="#2a3550"/>
  <polyline points="472,340 490,324 508,332 526,316 548,322" fill="none" stroke="#2ecc71" stroke-width="3" stroke-linecap="round"/>
  <rect x="640" y="300" width="100" height="56" rx="5" fill="#0a1128" stroke="#2a3550" stroke-width="3"/>
  <circle cx="666" cy="328" r="12" fill="none" stroke="#2ecc71" stroke-width="4"/>
  <path d="M666 322 v6 l5 4" stroke="#2ecc71" stroke-width="3" fill="none" stroke-linecap="round"/>
  <rect x="688" y="312" width="40" height="6" rx="3" fill="#16223f"/>
  <rect x="688" y="324" width="40" height="6" rx="3" fill="#16223f"/>
  <rect x="688" y="336" width="28" height="6" rx="3" fill="#2ecc71" opacity="0.7"/>

  <!-- operatrice avec casque (de face) -->
  <ellipse cx="600" cy="412" rx="66" ry="9" fill="#000" opacity="0.35"/>
  <path d="M566 408 L570 350 L630 350 L634 408 Z" fill="#1c2742"/>
  <rect x="556" y="292" width="88" height="66" rx="18" fill="#c0392b"/>
  <line x1="562" y1="306" x2="530" y2="344" stroke="#96281b" stroke-width="14" stroke-linecap="round"/>
  <circle cx="528" cy="348" r="7" fill="#7a4a21"/>
  <line x1="638" y1="306" x2="670" y2="344" stroke="#96281b" stroke-width="14" stroke-linecap="round"/>
  <circle cx="672" cy="348" r="7" fill="#7a4a21"/>
  <rect x="590" y="276" width="20" height="18" fill="#5f3a1b"/>
  <circle cx="600" cy="246" r="34" fill="#141414"/>
  <ellipse cx="600" cy="252" rx="28" ry="30" fill="#7a4a21"/>
  <rect x="570" y="250" width="9" height="40" rx="4" fill="#141414"/>
  <rect x="621" y="250" width="9" height="40" rx="4" fill="#141414"/>
  <path d="M572 250 a28 30 0 0 1 56 0" fill="none" stroke="#0a0a0a" stroke-width="6"/>
  <rect x="568" y="244" width="10" height="22" rx="5" fill="#141414"/>
  <rect x="622" y="244" width="10" height="22" rx="5" fill="#141414"/>
  <line x1="626" y1="266" x2="614" y2="280" stroke="#141414" stroke-width="4" stroke-linecap="round"/>
  <circle cx="612" cy="282" r="4" fill="#2ecc71"/>
  <circle cx="592" cy="254" r="2.5" fill="#141414"/>
  <circle cx="608" cy="254" r="2.5" fill="#141414"/>
  <path d="M593 266 Q600 271 607 266" stroke="#3d2410" stroke-width="2.4" fill="none" stroke-linecap="round"/>
</svg>
